<svg width="7999" height="1171" viewBox="0 0 7999 1171" fill="none" xmlns="http://www.w3.org/2000/svg">
<path d="M1947.67 915.078V96.668H1727V1119.67H2340.79V915.078H1947.67Z" fill="#00253B"/>
<path d="M2796.71 1143.05C3040.76 1143.05 3223.44 963.306 3223.44 725.077C3223.44 486.876 3040.76 308.578 2796.71 308.578C2552.66 308.578 2369.98 486.876 2369.98 725.077C2369.98 963.306 2552.66 1143.05 2796.71 1143.05ZM2796.71 941.369C2673.93 941.369 2586.27 853.677 2586.27 725.077C2586.27 597.947 2673.93 508.785 2796.71 508.785C2919.46 508.785 3007.15 597.947 3007.15 725.077C3007.15 853.677 2919.46 941.369 2796.71 941.369Z" fill="#00253B"/>
<path d="M4221.5 312.957C4120.69 312.957 4031.53 362.655 3977.45 438.644C3930.69 359.743 3848.85 312.957 3748.01 312.957C3654.5 312.957 3568.28 358.273 3512.73 428.411L3473.29 330.512H3324.22V1119.66H3537.58V692.931C3537.58 570.183 3594.57 500.018 3691.02 500.018C3767.01 500.018 3807.95 555.568 3807.95 660.788V1119.66H4015.45V692.931C4015.45 570.183 4072.46 500.018 4167.45 500.018C4244.91 500.018 4285.82 555.568 4285.82 660.788V1119.66H4499.19V625.706C4499.19 440.114 4385.18 312.957 4221.5 312.957Z" fill="#00253B"/>
<path d="M5285.36 330.515L5263.42 405.035C5194.73 345.13 5105.6 308.578 5003.29 308.578C4766.56 308.578 4589.73 486.876 4589.73 725.077C4589.73 963.306 4766.56 1143.05 5003.29 1143.05C5104.13 1143.05 5191.82 1107.96 5259.04 1048.06L5278.04 1119.67H5444.63V330.515H5285.36ZM5020.84 941.369C4896.63 941.369 4806.02 847.852 4806.02 725.077C4806.02 600.86 4896.63 508.785 5020.84 508.785C5145.06 508.785 5235.66 600.86 5235.66 725.077C5235.66 849.295 5145.06 941.369 5020.84 941.369Z" fill="#00253B"/>
<path d="M6046.69 312.957C5940 312.957 5845.01 358.273 5785.11 428.411L5744.17 330.512H5598.05V1119.66H5811.4V706.077C5811.4 578.947 5878.62 500.018 5988.23 500.018C6080.3 500.018 6125.62 557.01 6125.62 676.846V1119.66H6338.97V641.791C6338.97 441.557 6226.45 312.957 6046.69 312.957Z" fill="#00253B"/>
<path d="M6466.06 1119.66H6692.59V891.693H6466.06V1119.66Z" fill="#00253B"/>
<path d="M7472.96 330.515L7451.03 405.035C7382.33 345.13 7293.2 308.578 7190.89 308.578C6954.16 308.578 6777.33 486.876 6777.33 725.077C6777.33 963.306 6954.16 1143.05 7190.89 1143.05C7291.73 1143.05 7379.42 1107.96 7446.65 1048.06L7465.64 1119.67H7632.24V330.515H7472.96ZM7208.45 941.369C7084.23 941.369 6993.62 847.852 6993.62 725.077C6993.62 600.86 7084.23 508.785 7208.45 508.785C7332.66 508.785 7423.27 600.86 7423.27 725.077C7423.27 849.295 7332.66 941.369 7208.45 941.369Z" fill="#00253B"/>
<path d="M7785.65 225.295H7997.53V28H7785.65V225.295ZM7785.65 1119.67H7999V330.515H7785.65V1119.67Z" fill="#00253B"/>
<mask id="mask0_1401_351" style="mask-type:luminance" maskUnits="userSpaceOnUse" x="0" y="0" width="1449" height="1171">
<path d="M0 0H1448.62V1171H0V0Z" fill="white"/>
</mask>
<g mask="url(#mask0_1401_351)">
<path fill-rule="evenodd" clip-rule="evenodd" d="M405.072 114.951H716.309C782.603 114.951 839.654 99.6079 897.252 66.5969L1003.5 5.22447C1012.48 0.000697374 1022.62 0.000697374 1031.29 5.22447C1040.29 10.4209 1045.21 19.1181 1045.21 29.2374V114.951H1261.46C1312.42 114.951 1354.12 156.632 1354.12 207.584V488.71H1422.14C1436.06 488.71 1447.63 500.307 1447.63 514.2V658.387C1447.63 672.281 1436.06 683.85 1422.14 683.85H1354.12V746.097C1354.12 831.811 1319.09 909.675 1262.64 966.125C1206.16 1022.6 1128.3 1057.64 1042.59 1057.64H731.351C665.056 1057.64 608.032 1072.98 550.407 1105.96L444.155 1167.36C435.184 1172.56 425.065 1172.56 416.368 1167.36C407.397 1162.14 402.474 1153.47 402.474 1143.32V1057.64H186.195C135.243 1057.64 93.5628 1015.93 93.5628 964.976V683.85H25.5175C11.624 683.85 0.027832 672.281 0.027832 658.387V514.2C0.027832 500.307 11.624 488.71 25.5175 488.71H93.5628V426.463C93.5628 340.777 128.597 262.885 185.046 206.435C241.496 149.986 319.387 114.951 405.072 114.951ZM622.5 586.294C622.5 536.791 582.269 496.532 532.767 496.532C483.237 496.532 443.006 536.791 443.006 586.294C443.006 635.797 483.237 676.028 532.767 676.028C582.269 676.028 622.5 635.797 622.5 586.294ZM1004.68 586.294C1004.68 536.791 964.422 496.532 914.92 496.532C865.417 496.532 825.159 536.791 825.159 586.294C825.159 635.797 865.417 676.028 914.92 676.028C964.422 676.028 1004.68 635.797 1004.68 586.294ZM1238.3 586.294V231.05C1211.09 231.05 1183.6 231.05 1156.39 231.05C1094.99 231.05 1045.21 180.946 1045.21 119.874V115.225L963.848 162.129C881.909 209.334 801.146 231.05 706.463 231.05H405.072C351.221 231.05 302.594 253.039 266.985 288.648C231.376 324.257 209.36 372.912 209.36 426.764V941.811C236.573 941.811 264.086 941.811 291.299 941.811C352.671 941.811 402.474 991.916 402.474 1052.99V1057.64L483.811 1010.73C565.75 963.527 646.54 941.811 741.196 941.811H1042.59C1096.44 941.811 1145.09 919.822 1180.7 884.213C1216.31 848.604 1238.3 799.949 1238.3 746.097V586.294Z" fill="#FF1212"/>
</g>
</svg>
